<svg xmlns="http://www.w3.org/2000/svg" viewBox="0 0 1024 1024">
  <circle cx="512" cy="512" r="400" fill="#2E86C1"/>
  <circle cx="512" cy="512" r="380" fill="#1F4E79"/>
  <path d="M512 112C300.8 112 112 300.8 112 512s188.8 400 400 400 400-188.8 400-400S723.2 112 512 112zm0 720c-176.8 0-320-143.2-320-320S335.2 192 512 192s320 143.2 320 320-143.2 320-320 320z" fill="#A9C6E9"/>
  <path d="M512 192c-176.8 0-320 143.2-320 320s143.2 320 320 320 320-143.2 320-320S688.8 192 512 192zm0 600c-154.4 0-280-125.6-280-280S357.6 232 512 232s280 125.6 280 280-125.6 280-280 280z" fill="#F0F4F8"/>
  <path d="M512 232c-154.4 0-280 125.6-280 280s125.6 280 280 280 280-125.6 280-280-125.6-280-280-280zm0 600c-154.4 0-280-125.6-280-280S357.6 232 512 232s280 125.6 280 280-125.6 280-280 280z" fill="#B0C4DE"/>
</svg>